<svg t="1663658264224" class="icon" viewBox="0 0 1024 1024" version="1.1" xmlns="http://www.w3.org/2000/svg" p-id="27926" width="200" height="200"><path d="M513.5 940.36A428.48 428.48 0 0 1 346.77 117.3a428.47 428.47 0 0 1 333.46 789.39 425.62 425.62 0 0 1-166.73 33.67z m0-805.35c-207.87 0-377 169.11-377 377s169.12 377 377 377 377-169.12 377-377S721.37 135 513.5 135z" fill="#1E7FFE" p-id="27927"></path><path d="M616.3 298.81c68.69 0 124.59 51.64 124.59 115.59 0 19.9-5.68 39.32-16.11 56.85-15.63 25.58-40.73 44.53-71 53.53-8.06 2.37-14.22 3.32-19.9 3.32a23.69 23.69 0 0 1 0-47.38 13.37 13.37 0 0 0 5.21-0.94c20.37-5.69 36.48-17.53 45.48-33.17a60.2 60.2 0 0 0 9-32.21c0-37.42-34.58-68.21-76.74-68.21a85.62 85.62 0 0 0-41.7 10.89c-22.26 12.79-35.52 34.11-35.52 57.32v198.5c0 40.26-22.27 77.22-59.22 98.06A130.31 130.31 0 0 1 415.44 728c-68.7 0-124.6-51.64-124.6-115.59 0-19.9 5.69-39.33 16.11-56.85C322.58 530 347.69 511 378 502c8.53-2.36 14.21-3.31 19.9-3.31a23.69 23.69 0 0 1 0 47.37 13.19 13.19 0 0 0-5.21 0.95c-20.38 6.16-36.48 18-45.48 33.16a60.25 60.25 0 0 0-9 32.22c0 37.42 34.58 68.21 77.22 68.21a85.61 85.61 0 0 0 41.69-10.89c22.26-12.79 35.52-34.11 35.52-57.32v-198c0-40.27 22.27-77.22 59.22-98.06 19.42-11.85 41.69-17.53 64.43-17.53z" fill="#F4B426" p-id="27928"></path></svg>