<?xml version="1.0" standalone="no"?><!DOCTYPE svg PUBLIC "-//W3C//DTD SVG 1.1//EN" "http://www.w3.org/Graphics/SVG/1.1/DTD/svg11.dtd"><svg class="icon" width="200px" height="200.00px" viewBox="0 0 1024 1024" version="1.1" xmlns="http://www.w3.org/2000/svg"><path d="M640 0H128a64 64 0 0 0-64 64v896a64 64 0 0 0 64 64h768a64 64 0 0 0 64-64V320L640 0z" fill="#84BF56" /><path d="M640 0v256a64 64 0 0 0 64 64h256L640 0z" fill="#434854" /><path d="M448 416v261.888A94.784 94.784 0 0 0 416 672a96 96 0 1 0 96 96v-192l192 32-256-192z" fill="#FFFFFF" /><path d="M704 320l256 256v-256z"  /></svg>