<svg t="1662469641235" class="icon" viewBox="0 0 1024 1024" version="1.1" xmlns="http://www.w3.org/2000/svg" p-id="6098" width="200" height="200"><path d="M475.880071 973.883598H45.149912c-27.541446 0-29.798942-2.257496-29.798942-29.347443v-1.805996c0-47.858907-5.417989-49.664903 46.504409-47.407408 17.156966 0.902998 13.544974-9.932981 13.544974-19.414462V288.056437c0-11.738977 0.451499-23.477954 0-35.216931-0.451499-23.477954 9.481481-39.731922 31.153439-49.213404C181.051146 172.472663 255.097002 140.416226 329.594356 108.359788c39.280423-16.705467 79.012346-33.410935 118.292769-51.0194 42.440917-18.962963 70.433862-1.354497 70.433863 45.601411v771.160494c0 6.772487-4.063492 18.511464 3.611993 19.865961 13.544974 2.708995 97.07231 4.063492 110.165784-0.902998 5.869489-2.257496 2.708995-11.287478 2.708995-17.156967V225.29806c0-65.467372 26.638448-81.269841 83.075838-48.310406 66.37037 38.377425 132.289242 78.109347 199.56261 115.583775 23.477954 13.093474 32.056437 31.153439 31.604938 57.340388-0.451499 175.181658 0 349.911817-0.902998 525.093474 0 17.608466 5.417989 23.026455 21.671958 20.31746 3.611993-0.451499 7.223986 0 11.287478 0 25.283951 0 27.541446 2.257496 27.541446 27.541447v25.735449c0 21.671958-4.063492 25.73545-26.186949 25.73545h-436.599647c-23.026455-0.451499-46.504409-0.451499-69.982363-0.451499z m352.620811-513.805997v-11.287478c0-26.186949-1.354497-27.541446-27.089947-27.541446-57.340388 0-49.664903-5.417989-50.567901 55.985891 0 14.447972 5.869489 22.123457 20.768959 21.220458 5.417989-0.451499 10.835979 0 16.705467 0 40.183422 0.451499 40.183422 0.451499 40.183422-38.377425z m0 238.843034c0-5.417989-0.451499-11.287478 0-16.705467 0.902998-16.253968-7.223986-21.671958-22.574956-21.671958-55.985891-1.354497-55.534392-1.805996-55.082892 54.179894 0 17.156966 5.869489 25.73545 23.929453 23.929453 4.96649-0.451499 9.932981 0 14.899471 0 38.828924 0 38.828924 0 38.828924-39.731922z m0-118.744268c0-38.828924 0-38.828924-39.280423-38.828924h-11.287478c-23.477954 0-26.638448 2.708995-26.638448 26.638448-0.451499 57.340388-3.611993 51.0194 50.116402 51.0194 24.832451 0 27.089947-2.257496 27.089947-27.541446v-11.287478z m0-239.746032c0-39.280423 0-39.280423-39.731923-39.280423h-13.093474c-20.31746 0.451499-24.832451 4.514991-24.832451 25.28395 0 59.597884-4.96649 51.922399 51.922398 52.373898 23.026455 0 25.283951-2.257496 25.283951-25.28395 0.451499-4.514991 0.451499-9.029982 0.451499-13.093475zM262.772487 460.9806v-10.835979c0-26.186949-1.805996-27.992945-28.444445-27.992946H203.174603c-12.190476 0-18.059965 5.869489-18.059965 18.059965v38.828924c-0.451499 13.996473 6.772487 20.31746 20.317461 20.317461 12.190476 0 24.380952-0.451499 37.022927 0 14.899471 0.451499 21.220459-7.223986 20.76896-21.671958-0.451499-5.869489-0.451499-11.287478-0.451499-16.705467z m105.650793 37.925926h11.287478c24.380952 0 27.541446-3.160494 27.541447-27.541447v-31.153439c0-12.190476-6.320988-18.059965-18.059965-18.059965h-42.440917c-11.287478 0-17.156966 5.417989-17.156967 16.705468v20.31746c0 39.731922 0 39.731922 38.828924 39.731923z m422.151676 282.186948h-14.899471c-21.671958 0-23.929453 2.257496-24.380952 24.832452v35.216931c0.451499 11.738977 6.772487 18.059965 18.962963 17.608466h18.511463c39.731922 0 39.731922 0 39.731923-39.280424 0-38.377425 0-38.377425-37.925926-38.377425zM223.943563 541.347443h-11.287478c-24.832451 0-27.541446 2.708995-27.541447 27.541446 0 10.38448 0.451499 20.768959 0 31.604938-0.451499 12.641975 6.320988 18.511464 17.608466 18.511464 13.996473 0.451499 28.444444 0.451499 42.440917 0 11.738977-0.451499 17.608466-6.772487 17.608466-18.962963v-20.31746c0-38.377425 0-38.377425-38.828924-38.377425z m105.650793 37.925926c0 5.417989 0.451499 11.287478 0 16.705467-1.354497 17.156966 6.772487 22.574956 23.026455 23.026455 56.888889 0.902998 56.888889 1.354497 54.631394-55.985891v-3.611993c-0.451499-12.190476-6.772487-18.059965-18.511464-18.059964-12.190476 0-24.832451 0.451499-37.022928 0-15.35097-0.902998-23.026455 5.869489-22.123457 21.671957v16.253969zM224.395062 378.80776c4.96649 0 9.932981-0.451499 14.899471 0 17.608466 1.805996 23.929453-5.869489 24.380952-23.477954 0.451499-56.888889 0.902998-56.888889-56.43739-54.631393h-3.611993c-10.835979 0.902998-17.156966 5.869489-17.608465 17.156966 0 7.223986-0.451499 14.899471-0.451499 22.123457-0.451499 38.828924-0.451499 38.828924 38.828924 38.828924z m144.479718 0c38.377425 0 38.377425 0 38.377425-38.828924v-20.31746c0-11.738977-6.320988-18.511464-18.059965-18.511464s-23.477954 0.451499-35.216931 0c-17.156966-0.902998-25.73545 5.869489-24.380953 23.477954 0.451499 4.96649 0 9.932981 0 14.899471 0 39.280423 0 39.280423 39.280424 39.280423zM185.114638 818.116402v22.123457c0 11.287478 5.417989 16.705467 16.253969 18.511464 55.082892 8.578483 61.855379 2.708995 61.40388-51.922399v-7.223986c0-12.190476-5.869489-18.059965-18.059965-18.059964-13.544974 0-27.089947 0.451499-40.634921 0-13.093474-0.451499-19.414462 5.869489-19.414462 18.511463 0.451499 5.869489 0.451499 11.738977 0.451499 18.059965z m183.760142-37.022928c-39.280423 0-39.280423 0-39.280424 38.828925v13.093474c0 22.123457 3.611993 25.73545 25.283951 25.73545 56.888889 0 52.373898 6.320988 52.373898-52.373898 0-23.026455-1.805996-24.832451-25.283951-25.283951h-13.093474z m38.377425-561.213403c0-37.925926 0-37.925926-36.571429-37.925926-41.08642 0-41.08642 0-41.08642 41.086419 0 36.571429 0 36.571429 36.571429 36.571429h1.805996c39.280423 0 39.280423 0 39.280424-39.731922z m-144.479718 479.492063c0-38.828924 0-38.828924-38.828924-38.828924h-16.705468c-14.899471 0-23.026455 5.869489-22.574956 22.123457 0.451499 11.738977 0.451499 23.477954 0 35.216931-0.451499 14.899471 6.320988 21.671958 21.220459 20.768959 5.417989-0.451499 11.287478 0 16.705467 0 40.183422-0.451499 40.183422-0.451499 40.183422-39.280423z m105.199294 38.828924c39.280423 0 39.280423 0 39.280424-39.731922v-13.093475c0-20.31746-4.514991-24.832451-24.832452-25.28395-60.952381-0.451499-52.373898-2.257496-52.825397 52.373897 0 23.026455 2.708995 25.283951 25.73545 25.283951 4.063492 0.451499 8.126984 0.451499 12.641975 0.451499z" p-id="6099" fill="#4fa1fb"></path></svg>