<svg t="1662469743484" class="icon" viewBox="0 0 1024 1024" version="1.1" xmlns="http://www.w3.org/2000/svg" p-id="6582" width="200" height="200"><path d="M511.548501 1006.391534h-424.409171C30.70194 1006.391534 18.059965 993.29806 17.608466 936.409171v-183.760141c0-53.728395 14.447972-67.724868 69.079365-67.724868 42.440917 0 84.881834-1.354497 127.322751 0.451499 21.671958 0.902998 26.186949-6.320988 25.283951-26.638448-1.354497-43.343915-0.451499-87.13933-0.451499-130.483245 0.451499-50.116402 15.35097-65.015873 65.918871-65.015873 42.440917-0.451499 84.881834-1.354497 127.322751 0.451499 22.574956 0.902998 31.604938-4.514991 30.250441-28.895943-2.257496-45.601411-1.354497-90.751323-0.451499-136.352734 0.451499-41.08642 16.253968-57.340388 57.791887-57.791887 47.407407-0.902998 94.814815-0.902998 142.222222 0 16.253968 0.451499 22.123457-4.063492 21.671958-21.220459-1.354497-46.504409-0.902998-93.008818-0.451499-139.513227 0.451499-45.149912 16.253968-60.952381 60.952381-61.40388 67.273369-0.451499 134.546737-0.451499 201.820106 0 43.795414 0.451499 58.694885 15.35097 59.146384 59.146384 0.451499 289.862434 0.451499 579.273369 0 869.135803 0 45.601411-15.802469 59.597884-64.564374 59.597883h-428.924162z m-2.708995-98.426807c123.710758 0 247.421517-0.451499 370.680776 0.451499 21.671958 0 28.895944-4.96649 28.444445-27.541446-1.354497-67.273369-0.451499-134.546737-0.451499-201.820106 0-177.890653-0.451499-356.232804 0.451499-534.123457 0-23.929453-7.223986-31.153439-29.798942-29.347443-24.380952 1.805996-49.664903 1.354497-74.045856 0-15.802469-0.902998-20.31746 4.96649-20.31746 20.317461 0.902998 42.440917 0.451499 84.881834 0.451499 127.77425 0 63.209877-12.641975 75.851852-77.206349 75.851852-41.537919 0-83.075838 0.902998-124.613757-0.451499-16.705467-0.451499-22.123457 4.514991-22.123456 21.671957 0.902998 47.407407 0.902998 94.814815 0 142.222223-0.451499 41.989418-15.35097 57.340388-57.340388 57.791887-45.601411 0.902998-91.202822 1.354497-136.352734-0.451499-21.671958-0.902998-29.347443 4.063492-28.444444 27.541446 1.805996 45.601411 0.902998 90.751323 0.451499 136.352734-0.451499 41.989418-18.059965 58.694885-60.049383 60.049382-22.574956 0.451499-45.601411 0-68.176367 0-30.70194 0.451499-71.78836-10.38448-88.493827 4.966491-19.414462 18.059965-3.160494 59.597884-6.320988 90.751322-2.257496 23.026455 6.772487 27.992945 28.444445 27.541447 121.904762 0 243.358025 0.451499 364.811287 0.451499z" fill="#4fa1fb" p-id="6583"></path><path d="M17.608466 223.040564c0-49.213404-0.451499-98.878307 0-148.09171 0.902998-40.634921 15.802469-55.985891 55.98589-56.888889 53.276896-0.902998 106.553792-0.902998 159.830688 0 36.571429 0.451499 55.082892 17.608466 55.534392 47.407407 0.451499 31.604938-18.059965 49.213404-55.534392 50.567901-32.507937 0.902998-65.015873 0.902998-97.975309 0-28.444444-0.902998-17.156966 19.865961-18.962963 33.410935-1.805996 13.996473-2.708995 27.541446 19.414463 26.638448 31.604938-1.354497 63.209877-0.902998 94.814814 0 38.377425 0.902998 57.791887 17.608466 58.243387 48.761905 0.451499 32.056437-20.31746 49.664903-59.146385 50.116402-29.798942 0.451499-59.146384 1.354497-88.945326-0.451499-18.962963-0.902998-26.638448 3.611993-25.283951 23.929453 1.805996 22.574956 0.451499 45.601411 0.451499 68.176367-0.451499 45.601411-16.253968 66.821869-49.664903 65.918871-31.604938-0.902998-48.310406-23.477954-48.761904-67.273368V223.040564z" fill="#4fa1fb" p-id="6584"></path></svg>