<svg t="1662470704266" class="icon" viewBox="0 0 1024 1024" version="1.1" xmlns="http://www.w3.org/2000/svg" p-id="7460" width="200" height="200"><path d="M753.100529 531.865961c-31.604938-0.451499-56.43739-11.738977-77.206349-32.056437-50.567901-50.567901-102.038801-100.684303-151.703704-152.155203-44.246914-46.05291-43.343915-102.941799 1.354498-148.54321 49.213404-50.567901 99.329806-100.684303 149.897707-149.897707 47.407407-45.601411 102.941799-44.698413 150.349206 1.805996 51.0194 50.116402 101.587302 100.684303 152.155203 152.155203 38.377425 39.280423 42.892416 94.363316 6.320988 134.546737-54.179894 58.243386-111.520282 113.777778-167.957672 169.31217-18.059965 16.705467-41.08642 23.929453-63.209877 24.832451zM15.35097 274.511464c0-37.022928-0.902998-73.594356 0-110.617284 1.805996-61.855379 42.892416-101.587302 104.296296-102.038801 70.433862-0.451499 141.319224-0.451499 211.753087 0 63.209877 0.451499 104.296296 37.925926 106.102293 100.232804 2.257496 74.497354 1.805996 149.446208 0 223.943563-1.354497 56.888889-38.828924 96.620811-95.266314 98.426808-77.657848 2.708995-155.315697 2.257496-232.522046 0C55.985891 483.104056 18.059965 442.017637 16.253968 388.289242c-1.354497-37.925926-0.451499-75.400353-0.451499-113.326279l-0.451499-0.451499z" p-id="7461" fill="#4fa1fb"></path><path d="M749.037037 1007.746032c-37.022928 0-73.594356 0.902998-110.617284-0.451499-59.597884-1.805996-99.329806-40.183422-100.684303-99.329806-1.805996-73.594356-1.805996-147.188713 0-220.783069 1.354497-59.146384 39.731922-99.781305 99.329806-101.587302 75.400353-2.257496 151.252205-2.257496 226.652557 0.451499 60.049383 2.257496 96.620811 42.892416 97.07231 102.4903 0.902998 72.691358 0.902998 145.382716 0 218.074074-0.451499 58.694885-40.183422 98.878307-98.878306 101.135803-37.022928 0.902998-74.948854 0-112.87478 0z" p-id="7462" fill="#4fa1fb"></path><path d="M225.29806 1008.197531c-35.66843 0-71.78836 0.902998-107.45679-0.451499-61.855379-1.805996-100.232804-39.280423-101.587302-101.587302-1.805996-72.691358-1.805996-145.382716-0.451499-218.074074 1.354497-65.015873 41.08642-102.4903 106.553792-103.393298 67.724868-0.902998 135.449735-0.902998 203.174603 0 75.851852 0.902998 112.87478 39.280423 113.326279 115.132275 0 64.564374 0.451499 129.580247 0 194.144621-0.902998 76.303351-38.377425 113.326279-114.680776 113.777778-32.959436 0.902998-65.918871 0.451499-98.878307 0.451499z" p-id="7463" fill="#4fa1fb"></path></svg>