<?xml version="1.0" standalone="no"?><!DOCTYPE svg PUBLIC "-//W3C//DTD SVG 1.1//EN" "http://www.w3.org/Graphics/SVG/1.1/DTD/svg11.dtd"><svg class="icon" width="200px" height="200.00px" viewBox="0 0 1024 1024" version="1.1" xmlns="http://www.w3.org/2000/svg"><path d="M758.090323 36.335484L736.619355 14.864516h-545.032258c-46.245161 0-82.580645 36.335484-82.580645 82.580645v825.806452c0 46.245161 36.335484 82.580645 82.580645 82.580645h644.129032c46.245161 0 82.580645-36.335484 82.580645-82.580645V199.845161l-160.206451-163.509677zM583.019355 583.019355l-61.109678 104.051613c-26.425806 44.593548-84.232258 61.109677-128.825806 34.683871l-1.651613-1.651613C346.83871 693.677419 330.322581 635.870968 356.748387 591.277419l28.077419-44.593548c0-1.651613 1.651613-3.303226 3.303226-4.954839 3.303226-3.303226 6.606452-4.954839 9.909678-6.606451 11.56129-3.303226 23.122581 3.303226 24.774193 14.864516 1.651613 6.606452 0 13.212903-3.303226 18.167742l-26.425806 46.245161c-14.864516 24.774194-6.606452 56.154839 18.167742 69.367742l1.651613 1.651613c24.774194 14.864516 56.154839 6.606452 69.367742-18.167742L545.032258 561.548387c14.864516-24.774194 11.56129-59.458065-13.212903-72.670968l-1.651613-1.651613c-1.651613-1.651613-4.954839-1.651613-6.606452-3.303225-1.651613 0-3.303226-1.651613-4.954838-3.303226-3.303226-3.303226-6.606452-6.606452-8.258065-11.56129-3.303226-9.909677 3.303226-21.470968 13.212903-23.122581 4.954839-1.651613 9.909677 0 14.864516 1.651613 3.303226 1.651613 8.258065 3.303226 11.561291 4.954838l1.651613 1.651613c44.593548 26.425806 56.154839 84.232258 31.380645 128.825807z m87.535484-151.948387l-29.729033 44.593548c-1.651613 1.651613-1.651613 3.303226-3.303225 4.954839-3.303226 3.303226-6.606452 4.954839-9.909678 4.954839-11.56129 3.303226-23.122581-3.303226-24.774193-14.864517-1.651613-6.606452 0-13.212903 3.303225-18.167742l26.425807-46.245161c14.864516-24.774194 6.606452-56.154839-18.167742-69.367742l-1.651613-1.651613c-24.774194-14.864516-56.154839-6.606452-69.367742 18.167742l-61.109677 104.051613c-14.864516 24.774194-14.864516 54.503226 9.909677 69.367742l1.651613 1.651613c3.303226 1.651613 8.258065 4.954839 13.212903 8.258065 1.651613 1.651613 3.303226 4.954839 3.303226 6.606451 3.303226 9.909677-3.303226 19.819355-13.212903 21.470968-3.303226 1.651613-6.606452 0-9.909678 0-1.651613 0-3.303226-1.651613-4.954838-1.651613-1.651613-1.651613-4.954839-1.651613-6.606452-3.303226v1.651613c-44.593548-26.425806-56.154839-77.625806-29.729032-123.870968l61.109677-104.051613c26.425806-44.593548 84.232258-61.109677 128.825807-34.683871l1.651613 1.651613c44.593548 26.425806 59.458065 85.883871 33.032258 130.47742z" fill="#4D97FF" /><path d="M736.619355 14.864516h-3.303226v132.129032c0 16.516129 8.258065 52.851613 57.806452 52.851613h127.174193L736.619355 14.864516z" fill="#A6CBFF" /></svg>