<?xml version="1.0" standalone="no"?><!DOCTYPE svg PUBLIC "-//W3C//DTD SVG 1.1//EN" "http://www.w3.org/Graphics/SVG/1.1/DTD/svg11.dtd"><svg t="1656070396944" class="icon" viewBox="0 0 1024 1024" version="1.1" xmlns="http://www.w3.org/2000/svg" p-id="8755" xmlns:xlink="http://www.w3.org/1999/xlink" width="200" height="200"><defs><style type="text/css">@font-face { font-family: feedback-iconfont; src: url("//at.alicdn.com/t/font_1031158_u69w8yhxdu.woff2?t=1630033759944") format("woff2"), url("//at.alicdn.com/t/font_1031158_u69w8yhxdu.woff?t=1630033759944") format("woff"), url("//at.alicdn.com/t/font_1031158_u69w8yhxdu.ttf?t=1630033759944") format("truetype"); }
</style></defs><path d="M310.53702 96.001411m-42.536844 0a42.536843 42.536843 0 1 0 85.073687 0 42.536843 42.536843 0 1 0-85.073687 0Z" fill="#0178FF" p-id="8756"></path><path d="M214.400141 155.15562m-24.022931 0a24.022931 24.022931 0 1 0 48.045862 0 24.022931 24.022931 0 1 0-48.045862 0Z" fill="#0178FF" p-id="8757"></path><path d="M303.131455 206.94942m-42.536844 0a42.536843 42.536843 0 1 0 85.073687 0 42.536843 42.536843 0 1 0-85.073687 0Z" fill="#0178FF" p-id="8758"></path><path d="M221.805706 295.680734m-20.320148 0a20.320148 20.320148 0 1 0 40.640296 0 20.320148 20.320148 0 1 0-40.640296 0Z" fill="#0178FF" p-id="8759"></path><path d="M96.091723 687.633814m-20.320148 0a20.320148 20.320148 0 1 0 40.640296 0 20.320148 20.320148 0 1 0-40.640296 0Z" fill="#0178FF" p-id="8760"></path><path d="M192.228602 672.86784m-27.725714 0a27.725713 27.725713 0 1 0 55.451427 0 27.725713 27.725713 0 1 0-55.451427 0Z" fill="#0178FF" p-id="8761"></path><path d="M243.977246 750.490806m-20.320149 0a20.320148 20.320148 0 1 0 40.640297 0 20.320148 20.320148 0 1 0-40.640297 0Z" fill="#0178FF" p-id="8762"></path><path d="M136.732019 783.770693m-35.131278 0a35.131278 35.131278 0 1 0 70.262557 0 35.131278 35.131278 0 1 0-70.262557 0Z" fill="#0178FF" p-id="8763"></path><path d="M395.610707 854.03325m-20.320148 0a20.320148 20.320148 0 1 0 40.640296 0 20.320148 20.320148 0 1 0-40.640296 0Z" fill="#0178FF" p-id="8764"></path><path d="M439.953786 772.707501m-20.320148 0a20.320148 20.320148 0 1 0 40.640296 0 20.320148 20.320148 0 1 0-40.640296 0Z" fill="#0178FF" p-id="8765"></path><path d="M354.925255 732.022049m-38.834061 0a38.834061 38.834061 0 1 0 77.668122 0 38.834061 38.834061 0 1 0-77.668122 0Z" fill="#0178FF" p-id="8766"></path><path d="M306.834237 813.392953m-27.725713 0a27.725713 27.725713 0 1 0 55.451427 0 27.725713 27.725713 0 1 0-55.451427 0Z" fill="#0178FF" p-id="8767"></path><path d="M214.400141 861.438815m-20.320148 0a20.320148 20.320148 0 1 0 40.640296 0 20.320148 20.320148 0 1 0-40.640296 0Z" fill="#0178FF" p-id="8768"></path><path d="M317.942585 924.295806m-42.536843 0a42.536843 42.536843 0 1 0 85.073686 0 42.536843 42.536843 0 1 0-85.073686 0Z" fill="#0178FF" p-id="8769"></path><path d="M425.187811 957.575693m-20.320148 0a20.320148 20.320148 0 1 0 40.640297 0 20.320148 20.320148 0 1 0-40.640297 0Z" fill="#0178FF" p-id="8770"></path><path d="M536.13582 964.981259m-46.239626 0a46.239626 46.239626 0 1 0 92.479252 0 46.239626 46.239626 0 1 0-92.479252 0Z" fill="#0178FF" p-id="8771"></path><path d="M665.552586 931.701371m-35.131278 0a35.131278 35.131278 0 1 0 70.262557 0 35.131278 35.131278 0 1 0-70.262557 0Z" fill="#0178FF" p-id="8772"></path><path d="M780.158222 865.141597m-46.239626 0a46.239626 46.239626 0 1 0 92.479252 0 46.239626 46.239626 0 1 0-92.479252 0Z" fill="#0178FF" p-id="8773"></path><path d="M857.826344 791.176258m-27.725713 0a27.725713 27.725713 0 1 0 55.451426 0 27.725713 27.725713 0 1 0-55.451426 0Z" fill="#0178FF" p-id="8774"></path><path d="M913.27777 695.039379m-42.536843 0a42.536843 42.536843 0 1 0 85.073687 0 42.536843 42.536843 0 1 0-85.073687 0Z" fill="#0178FF" p-id="8775"></path><path d="M824.546457 665.462275m-20.320148 0a20.320148 20.320148 0 1 0 40.640296 0 20.320148 20.320148 0 1 0-40.640296 0Z" fill="#0178FF" p-id="8776"></path><path d="M772.752657 739.427614m-27.725713 0a27.725713 27.725713 0 1 0 55.451426 0 27.725713 27.725713 0 1 0-55.451426 0Z" fill="#0178FF" p-id="8777"></path><path d="M684.021343 820.753362m-46.239626 0a46.239626 46.239626 0 1 0 92.479252 0 46.239626 46.239626 0 1 0-92.479252 0Z" fill="#0178FF" p-id="8778"></path><path d="M639.633108 739.427614m-27.725713 0a27.725713 27.725713 0 1 0 55.451427 0 27.725713 27.725713 0 1 0-55.451427 0Z" fill="#0178FF" p-id="8779"></path><path d="M539.793447 772.707501m-35.131278 0a35.131278 35.131278 0 1 0 70.262556 0 35.131278 35.131278 0 1 0-70.262556 0Z" fill="#0178FF" p-id="8780"></path><path d="M587.884464 865.141597m-20.320148 0a20.320148 20.320148 0 1 0 40.640297 0 20.320148 20.320148 0 1 0-40.640297 0Z" fill="#0178FF" p-id="8781"></path><path d="M491.747586 872.547162m-35.131279 0a35.131278 35.131278 0 1 0 70.262557 0 35.131278 35.131278 0 1 0-70.262557 0Z" fill="#0178FF" p-id="8782"></path><path d="M343.816907 288.275169m-20.320148 0a20.320148 20.320148 0 1 0 40.640296 0 20.320148 20.320148 0 1 0-40.640296 0Z" fill="#0178FF" p-id="8783"></path><path d="M425.187811 240.229307m-27.725713 0a27.725713 27.725713 0 1 0 55.451427 0 27.725713 27.725713 0 1 0-55.451427 0Z" fill="#0178FF" p-id="8784"></path><path d="M439.953786 155.15562m-35.131279 0a35.131278 35.131278 0 1 0 70.262557 0 35.131278 35.131278 0 1 0-70.262557 0Z" fill="#0178FF" p-id="8785"></path><path d="M521.32469 232.823742m-20.320148 0a20.320148 20.320148 0 1 0 40.640296 0 20.320148 20.320148 0 1 0-40.640296 0Z" fill="#0178FF" p-id="8786"></path><path d="M554.604577 155.15562m-20.320148 0a20.320148 20.320148 0 1 0 40.640296 0 20.320148 20.320148 0 1 0-40.640296 0Z" fill="#0178FF" p-id="8787"></path><path d="M676.615778 203.246638m-31.428496 0a31.428496 31.428496 0 1 0 62.856992 0 31.428496 31.428496 0 1 0-62.856992 0Z" fill="#0178FF" p-id="8788"></path><path d="M613.758786 258.698064m-31.428495 0a31.428496 31.428496 0 1 0 62.856991 0 31.428496 31.428496 0 1 0-62.856991 0Z" fill="#0178FF" p-id="8789"></path><path d="M783.861005 291.977951m-31.428496 0a31.428496 31.428496 0 1 0 62.856991 0 31.428496 31.428496 0 1 0-62.856991 0Z" fill="#0178FF" p-id="8790"></path><path d="M865.231909 236.526525m-20.320148 0a20.320148 20.320148 0 1 0 40.640296 0 20.320148 20.320148 0 1 0-40.640296 0Z" fill="#0178FF" p-id="8791"></path><path d="M155.245932 225.418177m-20.320148 0a20.320148 20.320148 0 1 0 40.640296 0 20.320148 20.320148 0 1 0-40.640296 0Z" fill="#0178FF" p-id="8792"></path><path d="M414.079464 62.721524m-20.320148 0a20.320148 20.320148 0 1 0 40.640296 0 20.320148 20.320148 0 1 0-40.640296 0Z" fill="#0178FF" p-id="8793"></path><path d="M532.433038 55.315959m-42.536844 0a42.536843 42.536843 0 1 0 85.073687 0 42.536843 42.536843 0 1 0-85.073687 0Z" fill="#0178FF" p-id="8794"></path><path d="M639.633108 73.829872m-24.02293 0a24.022931 24.022931 0 1 0 48.045861 0 24.022931 24.022931 0 1 0-48.045861 0Z" fill="#0178FF" p-id="8795"></path><path d="M713.598448 107.109759m-20.320148 0a20.320148 20.320148 0 1 0 40.640296 0 20.320148 20.320148 0 1 0-40.640296 0Z" fill="#0178FF" p-id="8796"></path><path d="M802.374917 166.263968m-42.536843 0a42.536843 42.536843 0 1 0 85.073687 0 42.536843 42.536843 0 1 0-85.073687 0Z" fill="#0178FF" p-id="8797"></path><path d="M78.661551 465.105614c13.546765-8.760242 17.430172-27.093531 17.791419-50.213344h52.155047c-2.032015 32.421925-7.811968 48.407109-20.997487 63.218238 15.082066 18.062354 21.855448 43.756052 20.997487 88.279755H97.98827c0-41.949817-4.515588-65.385721-19.326719-74.371742v74.371742H27.499934V374.297129h51.161617z" fill="#0178FF" p-id="8798"></path><path d="M250.615161 534.916612c-11.695374 23.164969-27.590246 33.460511-48.271641 33.46051-34.724875 0-57.573753-31.609119-57.573753-79.790448 0-45.155885 21.358734-76.765004 52.155047-76.765004s55.045024 32.015522 53.690347 88.370066H198.685893c3.567315 15.172377 13.050051 24.700269 24.564802 24.700269a32.647705 32.647705 0 0 0 27.590245-16.481898z m-31.157561-61.23138c-0.316091-14.675663-5.102615-23.932619-12.372712-23.932619s-12.011465 9.798827-11.695374 23.932619zM322.232394 434.53508c7.811968-13.908013 17.791419-21.132954 30.164131-21.132954 22.036072 0 36.576267 20.094369 36.576267 57.16735v95.504696H340.701151V478.652379c0-12.598492-3.567315-19.055783-9.663359-19.055783a11.785686 11.785686 0 0 0-8.805398 5.915421v100.652467H270.935309V374.297129h51.297085zM521.55047 566.074172h-48.94898v-26.506504h-0.316091c-10.521321 20.094369-20.139525 27.816025-34.047537 27.816025-18.64938 0-34.724875-16.481898-34.724875-53.55488V414.711646h48.271641v81.596684c0 12.598492 2.212638 20.591083 9.302112 20.591084a10.656789 10.656789 0 0 0 9.302112-7.992592V414.711646h51.161618zM619.448428 457.203334h-21.358734v32.421925c0 10.792256 3.386691 16.481898 9.66336 16.481898 4.741368 0 9.031177-3.883406 12.192089-10.792256V555.417383a42.401376 42.401376 0 0 1-29.30617 12.101777c-20.500772 0-43.710897-18.062354-43.710896-62.811835v-47.503991h-20.816863l71.97848-85.796181v43.259337h21.358734zM684.021343 411.641046c32.331614 0 54.548309 31.925211 54.548309 78.526084s-22.171539 78.255148-54.548309 78.255148c-30.660846 0-54.187062-30.118975-54.187062-78.255148-0.180624-46.600873 21.990916-78.526084 54.187062-78.526084z m0 94.195176c6.773383 0 11.334127-6.954006 11.334127-17.249548s-4.515588-17.249548-11.334127-17.249548-11.198659 6.954006-11.198659 17.249548 4.515588 17.159236 11.198659 17.159236zM803.413503 433.76743c9.031177-14.178948 18.468757-20.320148 30.841469-20.320149 16.933457 0 36.124708 10.792256 36.124708 58.702651v93.969396H821.837104v-88.324911c0-12.101777-3.025444-18.784848-9.482736-18.784848a14.359571 14.359571 0 0 0-9.031177 4.876836v102.187767h-51.071306V414.711646h51.161618zM996.500066 533.652247c0 48.136173-14.585351 74.913613-53.3291 74.913613a84.802752 84.802752 0 0 1-58.92843-21.855449V517.937999q18.288133 27.093531 40.640297 27.093531c12.688804 0 22.577942-6.186356 20.500772-23.435904a30.886625 30.886625 0 0 1-20.997487 8.218371c-24.880893 0-40.640296-22.577942-40.640296-57.39313 0-25.467919 9.031177-41.678882 15.082065-47.097588 9.482736-8.263527 16.075495-10.295542 40.143582-10.295542l57.438285-0.270935z m-52.33567-76.177978c-11.695374 0-17.11408 5.915421-17.114081 19.055783 0 10.295542 4.515588 16.978613 11.153504 16.978613a8.624774 8.624774 0 0 0 7.13463-3.341535v-32.692861zM963.220179 317.852273a46.239626 46.239626 0 1 0-92.072849 5.554174h91.711602a46.510561 46.510561 0 0 0 0.361247-5.554174zM142.286193 306.789081a42.536843 42.536843 0 1 0-81.686996 16.662522h78.300305a42.401376 42.401376 0 0 0 3.386691-16.662522zM256.936985 654.353927a20.320148 20.320148 0 1 0 36.124707-12.959739h-31.473651a20.274992 20.274992 0 0 0-4.651056 12.959739zM685.872734 669.165057a35.131278 35.131278 0 1 0 56.62548-27.951493h-43.033558a35.040967 35.040967 0 0 0-13.591922 27.951493zM722.855404 317.852273a20.320148 20.320148 0 1 0-39.872646 5.554174h39.104996a20.320148 20.320148 0 0 0 0.76765-5.554174z" fill="#0178FF" p-id="8799"></path></svg>