<svg t="1670580722280" class="icon" viewBox="0 0 1024 1024" version="1.1" xmlns="http://www.w3.org/2000/svg" p-id="4338" width="200" height="200"><path d="M984.719577 806.377425c-10.38448-49.664903-41.537919-81.72134-83.075838-106.102293-63.209877-37.022928-129.580247-66.821869-196.402116-96.620811-15.35097-6.772487-22.123457-4.514991-30.250441 10.38448-34.313933 61.855379-70.433862 122.80776-105.199295 183.760141-21.671958-28.895944-21.671958-56.888889 0.451499-83.978836 14.447972-17.608466 7.675485-29.347443-7.223986-43.343916-45.601411-42.440917-43.795414-41.989418-90.299823-0.902998-18.059965 16.253968-21.220459 29.798942-6.772487 47.858907 22.123457 27.541446 17.608466 54.179894-4.514991 80.818342-32.959436-59.597884-66.821869-117.84127-97.975309-177.439154-11.287478-21.220459-22.574956-23.477954-42.892416-13.544973-35.216931 18.059965-71.78836 33.862434-107.45679 51.0194-40.634921 19.414462-81.72134 37.474427-117.389771 65.467372-51.922399 40.634921-73.594356 106.102293-51.470899 160.733686 16.705467 41.989418 53.728395 63.209877 93.008818 80.366844 62.306878 27.089947 128.677249 34.765432 195.499118 40.183421 126.871252 9.932981 253.742504 7.223986 379.710758-10.835979 76.75485-11.287478 152.606702-27.992945 220.33157-68.176367 47.858907-28.444444 63.209877-65.918871 51.922399-119.647266zM380.613757 528.253968c68.176367 61.40388 164.797178 66.821869 238.391534 12.641976 91.202822-67.273369 136.804233-159.379189 138.15873-272.253969 0.451499-33.862434-4.514991-66.37037-11.287478-99.329806-15.35097-71.78836-58.694885-117.84127-127.77425-139.964726-60.952381-19.865961-123.710758-20.31746-185.566138-9.029983C357.135802 34.313933 299.343915 72.691358 276.768959 148.994709c-41.537919 142.222222-14.899471 271.802469 103.844798 379.259259z" p-id="4339" fill="#82b1fe"></path></svg>