<?xml version="1.0" standalone="no"?><!DOCTYPE svg PUBLIC "-//W3C//DTD SVG 1.1//EN" "http://www.w3.org/Graphics/SVG/1.1/DTD/svg11.dtd"><svg class="icon" width="200px" height="200.00px" viewBox="0 0 1024 1024" version="1.1" xmlns="http://www.w3.org/2000/svg"><path d="M707.2 79.9H238.6c-11.6 0-21 9.4-21 21V923c0 11.6 9.4 21 21 21h704.9V316.3L707.2 79.9" fill="#FFFFFF" /><path d="M943.6 960h-705c-20.4 0-37-16.6-37-37V100.9c0-20.4 16.6-37 37-37h468.6c4.2 0 8.3 1.7 11.3 4.7L954.9 305c3 3 4.7 7.1 4.7 11.3V944c0 8.9-7.2 16-16 16z m-705-864.1c-2.7 0-5 2.2-5 5V923c0 2.7 2.2 5 5 5h689V323l-227-227h-462z" fill="#00365B" /><path d="M943.6 316.3H707.2V79.9z" fill="#FFFFFF" /><path d="M943.6 332.3H707.2c-8.8 0-16-7.2-16-16V79.9c0-6.5 3.9-12.3 9.9-14.8s12.9-1.1 17.4 3.5L954.9 305c4.6 4.6 5.9 11.5 3.5 17.4-2.5 6-8.3 9.9-14.8 9.9z m-220.4-32H905L723.2 118.6v181.7z" fill="#00365B" /><path d="M104.7 414.2h698.8c22.4 0 40.6 19.8 40.6 44.3v301.4c0 24.5-18.2 44.3-40.6 44.3H104.7c-22.4 0-40.6-19.8-40.6-44.3V458.5c-0.1-24.5 18.1-44.3 40.6-44.3z" fill="#91A7B8" /><path d="M418.7 736.9c3 4 8.5 5.8 16.8 5.6 5.9 0 10.5-0.8 13.9-2.5s5.8-3.9 7.3-6.6 2.4-5.8 2.5-9.4-0.1-7.3-0.6-11.2l-33.2-217.5c-1.5-9.5-5.3-16.8-11.4-21.8-6-5-12.8-7.5-20.2-7.5-7.7 0-14.5 2-20.2 6-5.8 4-10.3 12-13.7 24.1l-42.8 162-44-161.2c-3.6-12.3-8.2-20.6-13.9-24.7s-12.6-6.2-20.8-6.2c-8.2 0-15.1 2.4-20.6 7.3-5.5 4.9-8.9 11.8-10.2 20.8l-33.2 218.7c-1.8 10.8-1.2 18.4 1.9 22.9 3.1 4.5 8.6 6.7 16.6 6.7 9.8 0 16.5-2.2 20.2-6.7 3.7-4.5 6.2-11.4 7.5-20.6l18.1-136.5c1-6.2 2.5-9.3 4.4-9.3 1.9 0 3.8 3.1 5.6 9.3 7.2 24.9 14.5 49.6 21.8 73.9 7.3 24.3 14.7 48.9 22.2 73.9 0.8 2.8 1.6 5.2 2.5 7.1s2.2 3.6 4 5c1.8 1.4 4.1 2.4 6.9 3.1 2.8 0.6 6.4 1 10.8 1 8.2 0 13.8-1.5 16.8-4.4 3-3 5.1-6.9 6.4-11.8l43.2-148.1c1.8-5.9 3.7-8.9 5.8-8.9 2.1 0 3.6 3 4.6 8.9l18.5 139.2c1.4 8.9 3.5 15.4 6.5 19.4z m202.8 1.8c19 0 35.6-3.2 49.8-9.6 14.1-6.4 26-15.6 35.5-27.4 9.5-11.8 16.6-26 21.2-42.6s6.9-35 6.9-55.3c0-19-2.2-36.7-6.7-53-4.5-16.3-11.4-30.5-20.8-42.4-9.4-12-21.3-21.3-35.9-28.2-14.5-6.8-31.8-10.2-51.9-10.2h-71.3c-9.3 0-15 1.5-17.4 4.4-2.3 3-3.5 7.3-3.5 12.9v234.1c0 5.7 1.2 10 3.7 12.9 2.4 3 8.2 4.4 17.2 4.4h73.2z m0-40.1h-44V510h34.3c14.1 0 25.8 2.1 35.1 6.2s16.7 10.1 22.4 17.9c5.7 7.8 9.6 17.5 12 29.1 2.3 11.6 3.5 24.7 3.5 39.3-0.1 64-21.1 96.1-63.3 96.1z" fill="#FFFFFF" /></svg>