<?xml version="1.0" standalone="no"?><!DOCTYPE svg PUBLIC "-//W3C//DTD SVG 1.1//EN" "http://www.w3.org/Graphics/SVG/1.1/DTD/svg11.dtd"><svg class="icon" width="200px" height="200.00px" viewBox="0 0 1024 1024" version="1.1" xmlns="http://www.w3.org/2000/svg"><path d="M704 0H192a64 64 0 0 0-64 64v320h576a64 64 0 0 1 64 64v416a64 64 0 0 1-64 64H128v32a64 64 0 0 0 64 64h768a64 64 0 0 0 64-64V320L704 0z" fill="#EAEAEA" /><path d="M704 0v256a64 64 0 0 0 64 64h256L704 0z" fill="#434854" /><path d="M768 320l256 256v-256z"  /><path d="M704 832a32 32 0 0 1-32 32H32a32 32 0 0 1-32-32V480a32 32 0 0 1 32-32h640a32 32 0 0 1 32 32v352z" fill="#EF4D4D" /><path d="M192 544H144a16 16 0 0 0-16 16v192a16 16 0 0 0 32 0V672h32a64 64 0 0 0 0-128z m0 96H160v-64h32a32 32 0 1 1 0 64zM352 544H304a16 16 0 0 0-16 16v192a16 16 0 0 0 32 0V672h32a64 64 0 0 0 0-128z m0 96h-32v-64h32a32 32 0 1 1 0 64zM592 544h-128a16 16 0 0 0 0 32H512v176a16 16 0 0 0 32 0V576h48a16 16 0 0 0 0-32z" fill="#FFFFFF" /></svg>