<svg t="1662469397960" class="icon" viewBox="0 0 1024 1024" version="1.1" xmlns="http://www.w3.org/2000/svg" p-id="5567" width="200" height="200"><path d="M53.276896 344.493827c137.707231 72.239859 274.962963 144.931217 412.670194 217.622575 13.093474 6.772487 26.638448 12.190476 41.989418 11.738977 19.414462 1.805996 36.119929-6.320988 52.825397-14.899471 138.610229-73.142857 277.220459-146.737213 416.282187-219.88007 18.962963-9.932981 32.056437-23.477954 32.056437-46.05291 0-23.026455-14.447972-34.313933-32.056437-43.795415-51.922399-27.089947-103.393298-54.179894-155.315697-81.72134-90.751323-47.407407-181.051146-94.814815-270.899471-142.222222-26.186949-13.544974-50.567901-16.253968-77.206349-0.4515-33.862434 19.865961-69.079365 37.022928-103.844797 55.082893C261.869489 136.352734 154.412698 193.241623 46.504409 249.227513 27.089947 259.611993 13.996473 274.059965 14.447972 295.731922c0 25.283951 18.511464 37.925926 38.828924 48.761905zM979.753086 686.730159c-9.029982-4.514991-18.511464-8.126984-26.638448-13.996473-11.287478-7.675485-20.31746-7.675485-32.507936-0.902998-111.520282 58.694885-223.943563 116.486772-335.463845 175.181658-48.761905 25.73545-96.620811 24.832451-144.479718 0-104.296296-54.179894-209.94709-106.553792-312.437389-163.89418-31.153439-17.608466-53.728395-15.35097-81.269842 1.354497-18.059965 11.287478-32.959436 23.477954-32.507936 46.05291 0 22.123457 13.093474 36.119929 32.507936 46.504409 139.964727 73.142857 280.380952 146.737213 420.345679 220.33157 14.447972 7.675485 28.895944 13.544974 45.149912 12.641975 15.35097 0.451499 28.895944-4.063492 41.989418-11.287478 91.654321-48.310406 183.760141-96.169312 275.414462-144.479717 50.116402-26.186949 99.781305-52.373898 149.897707-78.560847 17.608466-9.481481 29.798942-22.574956 30.250441-43.343915 0-21.671958-10.835979-36.571429-30.250441-45.601411z m-935.054673-130.934745c139.513228 73.142857 278.574956 146.737213 417.636684 221.234568 33.410935 17.608466 63.661376 16.705467 96.169312-0.451499 74.497354-39.731922 148.994709-79.012346 223.943563-118.292769 67.724868-35.66843 134.998236-71.336861 202.723104-107.45679 15.35097-8.126984 23.929453-20.768959 23.026455-38.828924 0-38.828924-58.243386-74.948854-92.557319-56.888889-109.262787 57.340388-218.977072 114.680776-328.239859 172.924162-50.567901 27.089947-99.329806 27.089947-149.897707 0C335.463845 572.952381 232.070547 521.029982 130.934744 465.044092c-31.153439-17.156966-55.985891-19.414462-84.881834 0.451499-17.156966 11.738977-31.153439 24.380952-32.056437 45.149912-0.451499 21.220459 12.190476 35.216931 30.70194 45.149911z" p-id="5568" fill="#4fa1fb"></path></svg>