<svg t="1663666470530" class="icon" viewBox="0 0 1024 1024" version="1.1" xmlns="http://www.w3.org/2000/svg" p-id="7515" width="200" height="200"><path d="M666.864198 986.525573c-89.848325-4.063492-183.308642-10.38448-276.317461-27.541446-29.798942-5.417989-32.507937-9.029982-38.828924-40.183422-6.772487-33.410935-3.611993-66.821869 2.257496-99.781305 4.96649-28.444444 26.186949-43.343915 50.116402-55.082892 29.798942-14.447972 62.758377-19.414462 93.008818-31.604938 27.089947-11.287478 52.373898-25.283951 66.82187-52.825397 12.190476-23.477954 5.869489-61.40388-15.35097-78.109348-22.123457-17.156966-35.66843-38.828924-42.440918-65.015873-2.257496-8.126984-6.320988-13.996473-13.544973-18.962963-23.929453-17.156966-32.056437-55.985891-16.705467-81.72134 5.417989-9.481481 6.320988-18.511464 6.772486-28.895944 1.805996-51.0194 8.578483-100.684303 35.668431-144.931216 28.444444-46.504409 69.982363-70.885362 123.710758-77.20635 45.149912-5.417989 87.590829 1.354497 127.77425 24.380953 51.0194 29.347443 72.239859 77.206349 83.978836 130.934744 4.96649 23.477954 8.126984 47.407407 7.675485 71.336861 0 6.320988 0.902998 12.190476 4.514992 18.059964 19.414462 32.959436 11.738977 67.724868-19.414462 90.751323-4.514991 3.611993-6.320988 7.675485-7.675485 12.641975-6.320988 24.832451-18.511464 45.601411-39.280424 62.758378-40.183422 33.410935-34.765432 90.751323 9.932981 118.292769 30.70194 18.962963 65.467372 25.283951 98.878307 36.571428 14.447972 4.96649 28.444444 10.38448 41.537919 18.059965 24.380952 14.447972 38.828924 34.765432 41.989418 63.661376 3.611993 30.250441 4.514991 60.500882 0 90.299823-2.708995 16.253968-11.287478 25.283951-27.089947 29.798942-36.571429 10.38448-74.045855 15.35097-111.520283 20.317461-60.952381 7.223986-121.453263 12.190476-186.469135 13.996472z" p-id="7516" fill="#00a9ff"></path><path d="M363.908289 37.474427c39.280423 2.257496 88.945326 21.671958 125.516755 69.079365 10.835979 13.996473 12.190476 31.604938 18.059965 47.407407 2.257496 6.320988-2.708995 8.578483-6.772487 11.738977-75.851852 53.728395-105.199295 130.934744-110.617284 219.880071-0.902998 15.35097-2.257496 28.895944-9.932981 43.343915-14.899471 26.638448-4.96649 72.239859 18.962963 92.10582 8.126984 6.772487 12.190476 13.996473 13.996473 23.477955 5.417989 23.477954 14.899471 44.698413 33.862434 61.855379 19.865961 18.059965 15.35097 46.504409-8.126984 60.500882-27.992945 16.705467-58.243386 27.089947-88.493827 37.925925-53.276896 18.962963-87.590829 51.922399-87.13933 111.971782 0 17.608466-6.320988 21.671958-23.929453 19.865961-61.40388-6.772487-123.259259-11.738977-183.760141-24.380952-19.414462-4.063492-27.089947-13.093474-26.186949-33.410935 1.805996-33.862434 1.354497-68.176367 0-102.4903-0.451499-18.511464 7.675485-31.604938 21.220458-41.989418 16.705467-13.093474 35.66843-20.768959 55.534392-27.541446 35.216931-11.738977 72.239859-18.059965 102.941799-41.537919 41.08642-31.153439 43.343915-82.17284 4.514991-116.486773-12.641975-11.287478-24.380952-23.477954-29.798942-40.63492-4.96649-16.705467-12.190476-31.153439-26.638448-43.795415-20.31746-17.608466-23.929453-51.922399-10.38448-75.400352 5.869489-10.38448 7.675485-20.768959 7.675485-32.056438 0-44.246914 7.675485-87.13933 27.541447-126.419753C216.268078 64.564374 272.705467 36.571429 363.908289 37.474427z" p-id="7517" fill="#00a9ff"></path></svg>