<svg t="1662469806576" class="icon" viewBox="0 0 1024 1024" version="1.1" xmlns="http://www.w3.org/2000/svg" p-id="6825" width="200" height="200"><path d="M888.550265 754.906526c-1.805996 43.795414 3.611993 97.975309-2.257496 151.703703-6.320988 53.276896-50.567901 95.266314-104.747795 98.426808-43.795414 2.257496-88.042328 0.902998-132.289242 1.805997-14.447972 0.451499-12.190476-8.578483-12.190476-17.156967 0-60.049383 0.451499-120.098765 0-180.599647-0.902998-59.146384-43.795414-105.650794-102.941799-113.326279-67.273369-8.578483-125.516755 24.832451-142.673722 82.17284-4.063492 13.093474-4.063492 26.186949-4.063492 39.731922 0 56.888889-0.902998 113.777778 0.4515 170.215168 0.451499 15.35097-4.514991 18.962963-18.962963 18.511463-40.183422-1.354497-80.366843 0.451499-120.098766-1.354497-66.37037-3.160494-111.068783-47.858907-111.971781-114.229277-1.354497-98.426808-0.451499-196.402116-0.451499-294.828924 0-23.026455 8.578483-43.343915 24.832451-59.146385C266.38448 433.439153 372.035273 330.045855 477.686067 226.652557c26.638448-25.73545 52.373898-24.832451 78.560847 1.354498 100.232804 100.232804 200.014109 200.465608 300.698412 300.246913 22.123457 22.123457 32.959436 46.955908 32.507937 78.560847-1.805996 46.955908-0.902998 92.557319-0.902998 148.091711z" p-id="6826" fill="#4fa1fb"></path><path d="M513.805996 16.705467c18.962963 0 40.634921 9.029982 58.243387 26.638448l423.957672 423.957672c17.156966 17.156966 19.865961 40.183422 7.223986 51.922399-12.190476 11.287478-36.119929 14.447972-55.082893-4.96649-135.449735-138.610229-271.802469-276.31746-407.703704-414.476191-26.186949-26.638448-29.347443-27.089947-55.534391-0.902998l-404.091711 404.091711c-4.96649 4.96649-10.38448 10.38448-16.253968 14.447971-14.447972 10.38448-36.119929 9.932981-46.05291-0.451499-8.578483-9.481481-7.675485-35.66843 1.354497-46.955908 2.257496-3.160494 5.417989-5.869489 8.578483-8.578483C166.603175 322.821869 304.310406 185.114638 442.469136 46.955908c18.059965-18.511464 38.828924-29.798942 71.33686-30.250441z" p-id="6827" fill="#4fa1fb"></path></svg>