<svg t="1670317890339" class="icon" viewBox="0 0 1024 1024" version="1.1" xmlns="http://www.w3.org/2000/svg" p-id="3806" width="200" height="200"><path d="M914.285714 235.68254c-134.095238-76.303351-256.451499-146.737213-373.84127-214.913581-19.865961-11.738977-36.571429-11.738977-55.534391-0.902998C343.13933 102.4903 218.074074 174.730159 103.393298 240.197531c-21.671958 12.190476-31.153439 29.347443-31.153439 54.631393 0.451499 159.379189 0.451499 300.698413 0 432.084656 0 26.638448 9.481481 44.246914 31.604938 56.888889 99.781305 56.888889 200.917108 115.583774 298.892416 172.021164l83.527337 48.310406c9.029982 4.96649 17.608466 7.675485 26.186949 7.675485 9.029982 0 18.059965-2.708995 27.089947-8.126984 111.520282-65.015873 244.261023-141.770723 379.710759-218.977073 23.026455-13.093474 32.959436-30.250441 32.507936-56.437389-0.902998-52.373898-0.451499-105.650794-0.451499-157.121694v-61.40388c0-20.31746 0-40.634921-0.451499-60.952381-0.451499-49.213404-0.451499-100.232804 0.902998-150.349206 0.902998-28.895944-9.932981-46.955908-37.474427-62.758377zM157.121693 317.855379c0-8.126984 2.708995-12.190476 10.835979-16.705467 129.580247-74.045855 235.231041-134.998236 332.303351-191.887125 4.514991-2.708995 8.126984-4.063492 11.738977-4.063492 4.063492 0 7.675485 1.354497 12.641975 4.063492 121.001764 69.982363 229.813051 132.740741 332.75485 191.435626 8.126984 4.96649 9.029982 9.932981 9.029983 20.31746v240.64903c0 45.601411 0 93.008818 0.451499 139.513228 0 12.190476-2.708995 18.059965-12.190476 23.477954-102.038801 58.243386-209.044092 120.098765-328.239859 189.17813-10.38448 6.320988-16.705467 6.320988-26.186949 0.451499-101.587302-59.146384-210.398589-121.904762-332.75485-191.887125-7.223986-4.063492-9.932981-8.578483-9.932981-17.608466 0-122.356261 0-254.194004-0.451499-386.934744z" p-id="3807" fill="#4fa1fb"></path><path d="M255.548501 419.89418c23.026455 13.093474 46.05291 26.638448 69.079365 39.731922 41.989418 24.380952 85.784832 49.664903 128.677249 73.594357 16.253968 9.029982 20.768959 17.156966 20.31746 33.862433-1.354497 28.444444-0.902998 57.791887-0.902998 85.784833 0 11.287478 0 22.574956 0.451499 33.410935v32.056437c0 27.992945 0 56.43739 0.902998 84.881834 0.902998 23.477954 14.899471 37.474427 37.925926 37.474427 22.574956 0 35.66843-13.544974 37.022928-37.925926 0.451499-5.417989 0.451499-11.287478 0.451499-16.705467v-3.611993V726.91358c0-53.728395 0-108.811287-0.451499-163.442681 0-13.544974 3.611993-20.768959 15.35097-27.089947 26.186949-14.447972 52.825397-29.798942 78.560846-44.698412 9.932981-5.869489 19.414462-11.287478 29.347443-17.156967 9.029982-5.417989 18.511464-10.38448 27.541446-15.802469 24.832451-14.447972 50.567901-28.895944 75.400353-43.795414 17.608466-10.38448 24.832451-25.283951 19.865961-42.892417-4.514991-17.156966-16.705467-27.541446-34.313933-28.895943-11.738977-0.902998-21.671958 4.96649-30.70194 9.93298l-2.257496 1.354498c-16.705467 9.481481-33.410935 19.414462-50.116402 28.895943-48.310406 27.992945-98.426808 56.43739-147.188712 85.333334-13.544974 8.126984-22.574956 8.126984-35.216931 0.451499-47.407407-26.638448-95.717813-54.631393-142.673722-81.269841-17.608466-10.38448-35.66843-20.31746-53.276896-30.701941l-2.257495-1.354497c-9.481481-5.417989-19.414462-11.287478-31.604939-11.738977h-0.902998c-21.671958 2.708995-33.862434 14.447972-35.66843 33.862434-1.805996 22.574956 13.093474 34.313933 26.638448 41.989418z" p-id="3808" fill="#4fa1fb"></path></svg>