<svg t="1662469575427" class="icon" viewBox="0 0 1024 1024" version="1.1" xmlns="http://www.w3.org/2000/svg" p-id="5855" width="200" height="200"><path d="M975.689594 465.495591c-1.805996-0.902998-3.611993-1.354497-5.869488-2.257496s-4.063492-1.805996-6.320988-2.708994l-76.75485-29.798942c-85.333333-33.410935-173.82716-67.724868-261.417989-101.135803-7.223986-2.708995-7.675485-3.160494-7.675485-11.738977 0.451499-43.795414 0.451499-88.493827 0.451499-132.289241V139.513228c0-70.885362-29.798942-101.587302-100.232804-101.587302H164.345679c-74.045855 0-102.038801 27.541446-102.038801 101.587302V890.356261c-0.902998 0-2.257496 0.451499-4.514991 0-11.738977 0-22.574956 4.063492-30.70194 12.190476-9.029982 8.578483-13.996473 21.671958-13.996473 35.216931 0 25.73545 16.705467 44.698413 42.440918 47.407408 8.126984 0.902998 17.156966 1.354497 27.541446 1.354497H902.998236c10.38448 0 18.962963-0.451499 27.089947-0.902998 24.832451-1.805996 41.08642-16.253968 45.149912-39.280423 4.063492-23.929453-6.772487-43.795414-27.992945-51.4709-2.708995-0.902998-3.160494-1.354497-3.160494-1.354497s-0.902998-1.354497-0.902998-7.223986c0.451499-122.356261 0.451499-225.29806 0-329.142857 14.447972 4.96649 28.444444 4.514991 40.183421-1.805997 11.287478-5.869489 18.962963-16.253968 23.026455-30.250441 9.029982-26.638448-3.160494-49.213404-30.70194-59.597883zM618.102293 428.924162l38.828924 15.35097c61.855379 24.380952 125.516755 49.664903 188.726631 73.594357 2.257496 0.902998 2.708995 1.354497 2.708995 1.354497 0.451499 0.902998 0.451499 3.611993 0.451499 8.126984v227.104056c0 42.440917-0.451499 85.784832 0.451499 129.128748v5.41799c-0.902998 0-2.708995 0.451499-5.417989 0.451499-78.560847-0.902998-150.349206-0.902998-220.33157 0H618.553792v-5.41799c1.354497-26.186949 1.354497-53.276896 0-79.915344v-4.514991h3.160494c18.059965 1.354497 36.571429 0.902998 54.179894 0.451499 6.772487 0 13.544974 0 19.865961-0.451499 31.153439 0 51.470899-18.059965 52.825397-46.504409 0.451499-13.996473-3.160494-25.283951-11.287478-34.313933-9.029982-9.481481-22.574956-14.899471-38.828924-15.35097-25.283951-0.902998-51.0194-0.902998-79.463845 0h-0.902998V700.726631c-0.451499-12.641975-1.354497-25.73545 0-30.250441 4.514991-1.354497 17.608466-1.354497 30.250441-1.354497h50.116402c30.70194-0.902998 50.567901-20.31746 50.567901-49.664903 0-27.541446-19.865961-46.05291-50.116402-46.955908-29.347443-0.902998-53.728395-0.902998-76.75485 0h-3.611993v-2.257496c0.451499-44.246914 0.451499-90.299824-0.451499-141.319224z m-97.975309-9.481481v183.760141c0 90.751323 0 184.663139 0.451499 277.671958 0 4.514991-0.451499 6.772487-0.451499 8.126984-1.354497 0.451499-3.611993 0.451499-8.126984 0.451499h-2.708995c-19.414462-0.451499-39.731922-0.451499-42.892416-4.063492-3.611993-3.611993-3.611993-23.929453-3.611993-45.601411v-29.347443c0-23.477954-0.451499-47.858907 0.451499-72.239859 0-7.675485-0.451499-18.962963-8.578483-27.089947-7.675485-7.675485-18.511464-8.578483-25.73545-8.578483h-0.902998c-55.082892 0.902998-111.971781 0.902998-169.763668 0-7.675485 0-17.608466 0.902998-24.832452 8.126984-7.675485 7.675485-8.126984 17.156966-8.126984 26.186949 0.451499 23.477954 0.451499 47.858907 0.451499 70.885361 0 25.73545 0 52.373898 0.451499 78.560847v3.160494h-1.805996c-23.026455-1.354497-46.504409-0.902998-65.467372 0v-8.578483-3.611993-160.282187c0-186.920635 0-380.162257-0.902999-570.694886 0-7.223986 0.902998-10.38448 0.902999-11.287478 0.902998-0.451499 4.063492-0.902998 12.190476-0.902998 107.005291 0.902998 218.525573 0.902998 340.881834 0 4.514991 0 7.223986 0.451499 8.126984 0.451499 0.451499 1.354497 0.451499 3.611993 0.451499 7.675485-0.451499 93.008818-0.451499 186.469136-0.451499 277.220459z m-153.058201 411.767196v33.862433c0 9.481481 0 19.414462-0.902998 23.477955-4.063492 0.902998-13.996473 0.902998-22.574956 0.902998-7.675485 0-16.253968 0-20.31746-0.451499-0.451499-4.063492-0.451499-13.093474-0.4515-21.220459v-60.049383c0-1.805996 0-3.611993-0.451499-5.869488 2.708995-1.805996 5.417989-2.708995 9.481482-2.708995 3.611993 0 7.675485 0.451499 11.738977 0.902998 7.223986 0.902998 14.899471 2.257496 23.477954 0.902999v30.250441h10.38448-10.38448z" p-id="5856" fill="#4fa1fb"></path><path d="M323.273369 533.671958v-0.902999c-0.451499-9.932981-0.902998-18.962963-2.257496-28.444444-3.611993-24.380952-21.220459-39.731922-46.05291-39.731922-26.638448 0-46.05291 17.156966-48.310406 41.989418-1.805996 21.671958-1.805996 45.149912 0 75.400352 1.354497 23.929453 18.962963 41.989418 42.892417 43.795415h4.96649c23.929453 0 41.537919-14.899471 46.05291-38.828924 1.805996-9.932981 2.257496-19.414462 2.708995-28.444445 0-3.611993 0.451499-7.223986 0.902998-11.287478v-2.257495c-0.451499-4.063492-0.451499-7.675485-0.902998-11.287478zM404.091711 464.592593c-27.089947 0.902998-44.698413 18.059965-46.955909 45.601411-0.451499 7.675485-0.451499 15.35097-0.451499 23.026455v44.246913c1.354497 27.541446 18.962963 46.504409 44.698413 48.310406h3.611993c25.283951 0 43.795414-17.156966 46.955908-43.343916 3.160494-26.638448 3.160494-52.373898-0.451499-76.75485-2.708995-26.638448-21.220459-42.440917-47.407407-41.086419zM226.201058 312.888889l0.451499 4.96649v6.772487c-0.451499 9.932981-0.902998 19.865961 0.902999 30.250441 4.063492 25.73545 22.123457 41.989418 47.407407 41.989418 26.186949 0 45.601411-17.608466 47.407407-42.892416 2.257496-27.089947 0.902998-54.631393-0.451499-75.400353-1.805996-25.73545-20.768959-42.892416-46.955908-43.343915h-0.451499c-25.73545 0-43.795414 17.156966-47.858907 44.698412-0.902998 8.578483-0.902998 16.705467-0.451499 23.929454-0.451499 2.708995 0 5.869489 0 9.029982zM404.54321 395.964727h0.902998c26.186949 0 44.698413-16.705467 48.310406-43.795415 1.354497-9.029982 0.902998-17.608466 0.451499-26.638448v-25.28395h-0.451499c0-7.223986 0-14.899471-0.902998-22.574956-3.160494-27.541446-22.123457-44.246914-49.664903-43.343916-25.283951 0.902998-43.795414 18.511464-45.601411 44.698413-1.805996 25.283951-1.805996 49.664903 0.451499 73.142857 2.257496 26.186949 20.768959 43.795414 46.504409 43.795415z" p-id="5857" fill="#4fa1fb"></path></svg>