<svg t="1662469678737" class="icon" viewBox="0 0 1024 1024" version="1.1" xmlns="http://www.w3.org/2000/svg" p-id="6340" width="200" height="200"><path d="M1010.455026 423.506173c1.805996-97.975309-73.142857-148.54321-150.349206-144.479718-73.594356 4.063492-147.640212 0.902998-225.749559 0.902998V189.62963c-0.451499-92.10582-54.631393-144.479718-151.252205-144.479718-107.005291-0.451499-214.462081-0.451499-321.467372 0C68.627866 45.149912 14.447972 96.169312 14.447972 186.017637c-0.451499 216.719577 1.354497 433.890653-0.902998 650.610229-0.902998 87.590829 64.564374 144.028219 148.994709 142.673721 231.167549-3.160494 462.335097-3.160494 693.502645 0 90.299824 1.354497 155.767196-51.470899 154.412698-146.737213-2.257496-136.352734-2.257496-272.705467 0-409.058201z m-465.947089 441.566137v27.089947c-9.932981 0.902998-17.608466 1.805996-25.283951 1.805997-119.195767 0-237.940035 0.451499-357.135803 0-44.246914 0-60.049383-14.899471-60.049382-56.888889-0.451499-214.91358-0.451499-429.82716 0-644.289242C102.038801 144.479718 116.486772 130.934744 166.151675 130.934744h318.306879c46.504409 0 60.952381 13.996473 60.952381 58.243387-0.902998 225.29806-0.902998 450.59612-0.902998 675.894179z m377.453262-29.347442c0 51.0194-24.380952 65.467372-94.814815 55.082892v-269.093474c0-9.481481 0.451499-19.414462-0.902998-28.895944-3.160494-21.671958-16.705467-34.765432-39.280423-36.571428-23.477954-1.354497-41.08642 7.675485-45.601411 32.056437-2.257496 12.190476-2.708995 24.832451-2.708995 37.022928-0.451499 88.042328 0 176.084656 0 266.384479H636.613757V367.068783c5.869489-0.902998 12.190476-2.708995 18.962963-2.708995 69.982363 0 139.964727-0.451499 210.398589 0 40.183422 0.451499 56.43739 15.802469 56.437389 54.179895 0 139.061728 0 278.123457-0.451499 417.185185z m-492.134039-365.262787c-35.216931-0.451499-69.982363 0-104.747795 0-34.765432 0-69.982363-0.451499-104.747795 0-30.250441 0.451499-47.858907 14.447972-49.664903 38.828924-1.805996 24.832451 13.996473 44.698413 42.892416 45.149912 74.045855 1.805996 148.091711 1.805996 221.686067 0 27.541446-0.451499 46.05291-22.574956 42.892416-45.601411-4.063492-26.186949-21.671958-37.925926-48.310406-38.377425z m-5.869488 190.532628c-32.959436-0.451499-65.918871 0-98.878307 0-33.862434 0-67.724868-0.451499-102.038801 0-32.959436 0.451499-52.825397 16.705467-53.276896 41.989418-0.451499 25.283951 19.414462 42.892416 52.373898 42.892416 67.724868 0.451499 135.901235 0.902998 203.626102 0 32.959436-0.451499 52.825397-18.059965 51.922399-43.795414-0.451499-25.283951-19.865961-40.634921-53.728395-41.08642zM428.924162 279.929453c-34.765432-0.451499-69.982363 0-104.747795 0H216.268078c-26.638448 0-43.795414 12.190476-46.05291 38.828924-2.257496 24.832451 13.996473 43.343915 43.795414 43.795415 72.691358 1.354497 145.834215 1.354497 218.525573 0.451499 27.992945-0.451499 46.504409-20.31746 45.149912-43.343915-0.902998-23.929453-18.962963-39.280423-48.761905-39.731923z" p-id="6341" fill="#4fa1fb"></path></svg>