<svg t="1662470064809" class="icon" viewBox="0 0 1024 1024" version="1.1" xmlns="http://www.w3.org/2000/svg" p-id="7264" width="200" height="200"><path d="M996.910053 963.047619c-19.865961-120.550265-72.691358-223.040564-165.248677-304.310406-58.694885-51.470899-126.871252-84.881834-207.238096-107.45679 64.564374-35.216931 109.714286-81.72134 135.449736-144.931217 26.638448-65.015873 26.638448-130.483245 2.257495-195.950617-41.989418-111.971781-145.382716-176.536155-271.802469-171.118166-109.714286 5.869489-206.335097 85.784832-237.037037 202.271605-24.832451 95.266314-2.708995 224.846561 140.867725 309.276896-2.257496 2.708995-2.708995 3.611993-3.611993 3.611993-2.708995 0.902998-5.869489 1.805996-8.578483 2.708995-197.756614 61.855379-314.694885 195.499118-353.975309 398.222222-4.514991 23.477954 0.451499 28.895944 23.929454 28.444444 76.75485-1.354497 153.961199-0.451499 230.716049-0.451499h689.890653c13.996473 0 27.992945 3.611993 24.380952-20.31746z" p-id="7265" fill="#4fa1fb"></path></svg>