<?xml version="1.0" standalone="no"?><!DOCTYPE svg PUBLIC "-//W3C//DTD SVG 1.1//EN" "http://www.w3.org/Graphics/SVG/1.1/DTD/svg11.dtd"><svg class="icon" width="200px" height="200.00px" viewBox="0 0 1024 1024" version="1.1" xmlns="http://www.w3.org/2000/svg"><path d="M640 0H128a64 64 0 0 0-64 64v896a64 64 0 0 0 64 64h768a64 64 0 0 0 64-64V320L640 0z" fill="#EF4D4D" /><path d="M640 0v256a64 64 0 0 0 64 64h256L640 0z" fill="#434854" /><path d="M704 320l256 256v-256z"  /><path d="M640 800h64v64h-64zM640 704h64v64h-64zM640 608h64v64h-64zM640 512h64v64h-64zM320 800h64v64h-64zM320 704h64v64h-64zM320 608h64v64h-64zM320 512h64v64h-64zM416 704h192v160h-192zM416 512h192v160h-192z" fill="#FFFFFF" /></svg>