<?xml version="1.0" standalone="no"?><!DOCTYPE svg PUBLIC "-//W3C//DTD SVG 1.1//EN" "http://www.w3.org/Graphics/SVG/1.1/DTD/svg11.dtd"><svg class="icon" width="200px" height="200.00px" viewBox="0 0 1024 1024" version="1.1" xmlns="http://www.w3.org/2000/svg"><path d="M707.2 79.9H238.6c-11.6 0-21 9.4-21 21V923c0 11.6 9.4 21 21 21h704.9V316.3L707.2 79.9" fill="#FFFFFF" /><path d="M943.6 960h-705c-20.4 0-37-16.6-37-37V100.9c0-20.4 16.6-37 37-37h468.6c4.2 0 8.3 1.7 11.3 4.7L954.9 305c3 3 4.7 7.1 4.7 11.3V944c0 8.9-7.2 16-16 16z m-705-864.1c-2.7 0-5 2.2-5 5V923c0 2.7 2.2 5 5 5h689V323l-227-227h-462z" fill="#00365B" /><path d="M943.6 316.3H707.2V79.9z" fill="#FFFFFF" /><path d="M943.6 332.3H707.2c-8.8 0-16-7.2-16-16V79.9c0-6.5 3.9-12.3 9.9-14.8s12.9-1.1 17.4 3.5L954.9 305c4.6 4.6 5.9 11.5 3.5 17.4-2.5 6-8.3 9.9-14.8 9.9z m-220.4-32H905L723.2 118.6v181.7z" fill="#00365B" /><path d="M104.7 414.2h698.8c22.4 0 40.6 19.8 40.6 44.3v301.4c0 24.5-18.2 44.3-40.6 44.3H104.7c-22.4 0-40.6-19.8-40.6-44.3V458.5c-0.1-24.5 18.1-44.3 40.6-44.3z" fill="#E06565" /><path d="M374.1 739.6c4.9 0 9.6-1.7 14.2-5.1 4.6-3.4 6.9-9.3 6.9-17.6 0-8.1-2.2-13.9-6.5-17.4-4.3-3.5-9.2-5.3-14.6-5.3H257.9l137.7-199.5c3.8-6 5.7-10.8 5.7-14.5 0-3.1-1.8-6.1-5.3-9-3.5-2.9-7.4-4.3-11.8-4.3H219.3c-5.4 0-10.3 1.8-14.6 5.3s-6.5 9.3-6.5 17.4c0 8.3 2.3 14.2 6.9 17.6 4.6 3.4 9.3 5.1 14.2 5.1h106.4L188.4 711.8c-3 4.4-4.5 8.5-4.5 12.1 0 3.9 1.9 7.5 5.7 10.8 3.8 3.3 8.3 4.9 13.4 4.9h171.1z m86.5 3.9c9.5 0 16.3-2.1 20.5-6.3 4.2-4.2 6.3-10.4 6.3-18.8V487.7c0-9.1-2.3-15.5-6.9-19.2-4.6-3.7-11.2-5.5-19.9-5.5-17.3 0-26 8.3-26 25v230.8c0 8.1 2 14.2 5.9 18.4 3.9 4.3 10.6 6.3 20.1 6.3z m104.8 0c9.5 0 16.2-2.1 20.3-6.3 4.1-4.2 6.1-8.9 6.1-14.1v-79h42.7c17.3 0 32.2-1.7 44.5-5.1 12.3-3.4 22.4-8.7 30.3-16 7.9-7.3 13.7-16.7 17.5-28.2 3.8-11.5 5.7-25.3 5.7-41.5s-1.8-29.8-5.3-40.9-9.2-20-17.1-26.8c-7.9-6.8-17.9-11.6-30.3-14.5-12.3-2.9-27.4-4.3-45.3-4.3h-57.3c-8.1 0-14.7 0.3-19.7 1s-8.9 1.9-11.6 3.7c-2.7 1.8-4.5 4.4-5.5 7.8-0.9 3.4-1.4 7.8-1.4 13.3v230.5c0 4.7 2 9.3 6.1 13.7 4 4.5 10.8 6.7 20.3 6.7z m69-143.2h-42.7v-89.2h42.7c6.5 0 12.5 0.6 17.9 1.8 5.4 1.2 10.2 3.4 14.2 6.7 4.1 3.3 7.2 7.6 9.5 13.1s3.5 12.5 3.5 21.1c0 16.4-3.2 28.3-9.5 35.6-6.4 7.3-18.2 10.9-35.6 10.9z" fill="#FFFFFF" /></svg>