<?xml version="1.0" standalone="no"?><!DOCTYPE svg PUBLIC "-//W3C//DTD SVG 1.1//EN" "http://www.w3.org/Graphics/SVG/1.1/DTD/svg11.dtd"><svg t="1547184022294" class="icon" style="" viewBox="0 0 1024 1024" version="1.1" xmlns="http://www.w3.org/2000/svg" p-id="16171" xmlns:xlink="http://www.w3.org/1999/xlink" width="200" height="200"><defs><style type="text/css">.st0{fill:#bbbbbb;}</style></defs><path class="st0" d="M510.661515 901.957433c-124.552737 0-225.535663-100.287077-225.535662-223.980238s100.983949-223.980237 225.535662-223.980237c120.323413 0 225.535663 104.486726 225.535663 223.980237 0.001023 123.69316-100.982926 223.980237-225.535663 223.980238zM341.510024 286.011013c0-92.755544 75.752288-167.984922 169.151491-167.984923s169.151491 75.229378 169.151492 167.984923v168.377871c-47.165206-35.248805-105.578594-56.387241-169.151492-56.387241-63.545268 0-121.986285 21.138436-169.151491 56.387241V286.011013z m394.688178 224.512356V286.011013c0-123.69316-100.983949-223.980237-225.535663-223.980238s-225.535663 100.287077-225.535663 223.980238v224.512356c-35.239596 46.728254-56.384172 104.570637-56.384172 167.453826 0 154.630776 126.244262 279.975553 281.919835 279.975553s281.919834-125.344776 281.919834-279.975553c0-62.883189-21.144576-120.725572-56.384171-167.453826z" p-id="16172"></path><path d="M510.661515 621.98188c-15.59007 0-28.192086 12.542664-28.192085 27.997658v111.99063c0 15.482623 12.602016 27.997658 28.192085 27.997658 15.59007 0 28.192086-12.515035 28.192086-27.997658v-111.99063c0-15.454994-12.602016-27.997658-28.192086-27.997658z" p-id="16173"></path></svg>