<?xml version="1.0" standalone="no"?><!DOCTYPE svg PUBLIC "-//W3C//DTD SVG 1.1//EN" "http://www.w3.org/Graphics/SVG/1.1/DTD/svg11.dtd"><svg t="1547183845875" class="icon" style="" viewBox="0 0 1024 1024" version="1.1" xmlns="http://www.w3.org/2000/svg" p-id="13599" xmlns:xlink="http://www.w3.org/1999/xlink" width="200" height="200"><defs><style type="text/css">.st0{fill:#bbbbbb;}</style></defs><path class="st0" d="M887.296 886.272c1.536 19.968-16.896 37.376-37.376 37.376-16.896 0-23.04-12.8-35.328-27.136-27.648-43.008-183.808-121.856-320-121.856s-285.184 76.288-317.44 121.856c-11.264 17.92-18.432 27.136-35.328 27.136-20.48 0-37.376-16.896-37.376-37.376 0-1.536 3.072-14.336 3.584-15.36 8.704-19.456 33.28-47.616 48.64-58.88 79.36-59.392 179.2-111.616 337.92-111.616 164.352 0 249.344 52.224 337.92 111.616 24.576 16.384 43.52 34.816 51.712 59.904 0 0 3.072 8.192 3.072 14.336z m-391.168-223.744c-174.592 0-316.416-133.632-316.416-297.984C179.712 199.68 321.024 66.56 496.128 66.56s316.416 133.632 316.416 297.984-141.824 297.984-316.416 297.984z m0-521.728c-133.632 0-242.176 100.352-242.176 223.744s108.544 223.744 242.176 223.744 242.176-100.352 242.176-223.744S629.76 140.8 496.128 140.8z" p-id="13600"></path></svg>