<?xml version="1.0" encoding="utf-8"?>
<!-- Generator: Adobe Illustrator 21.1.0, SVG Export Plug-In . SVG Version: 6.00 Build 0)  -->
<svg version="1.1" id="图层_1" xmlns="http://www.w3.org/2000/svg" xmlns:xlink="http://www.w3.org/1999/xlink" x="0px" y="0px"
	 viewBox="0 0 200 200" style="enable-background:new 0 0 200 200;" xml:space="preserve">
<style type="text/css">
	.st0{fill:#bbbbbb;}
</style>
<g>
	<path class="st0" d="M164,41.1c-24.3-9.4-41-16.5-50.8-20.8c-10.1-4.5-21.5-4.2-31.3,0.9c-10.2,5.2-26.5,13-45.8,20
		c-5,1.8-8.4,6.6-8.4,11.9v57.7c0,40.1,66.4,69.5,69.2,70.8l3.1,1.4l3.1-1.4c2.8-1.2,69.2-31.1,69.2-70.8V52.9
		C172.3,47.7,169,43,164,41.1z M157.2,54.4v56.4c0,22.5-35.7,45.5-57.3,55.8c-21.5-10.3-57.2-33.3-57.2-55.8V54.5
		c19.7-7.3,35.9-15,46.1-20.2c5.7-2.9,12.3-3.1,18.2-0.5C116.8,38.1,133.3,45.1,157.2,54.4z"/>
	<path class="st0" d="M73.8,94.5L73.8,94.5c-2.9-2.9-7.7-3-10.6-0.1c-2.9,2.9-3,7.6-0.1,10.5l23.7,24l50.7-49.3
		c3-2.9,3-7.6,0.1-10.5c-2.9-2.9-7.7-2.9-10.6-0.1l-40,38.9L73.8,94.5z"/>
</g>
</svg>
